<?xml version="1.0" standalone="no"?><!DOCTYPE svg PUBLIC "-//W3C//DTD SVG 1.1//EN" "http://www.w3.org/Graphics/SVG/1.1/DTD/svg11.dtd"><svg class="icon" width="200px" height="200.00px" viewBox="0 0 1024 1024" version="1.1" xmlns="http://www.w3.org/2000/svg"><path d="M652 63.97s-61.31 33.4-139.96 37.89c-78.64-4.49-139.96-37.89-139.96-37.89L308.9 86.13l10.77 117.63 192.38 48.92 192.38-48.92 10.74-117.29L652 63.97z" fill="#CCA527" /><path d="M861.72 410.78l0.58-272.79-210-74.02C635.04 182.7 511.24 260.83 511.24 260.83S396.48 195.79 372.38 63.96l-212.2 74.03 0.58 272.79s4.37 38.47-25.37 86.56v431.04H886.75s0.33-379.46 0.33-431.04c-29.74-48.09-25.36-86.56-25.36-86.56z" fill="#EEC72C" /><path d="M377.3 91.78c62 31.02 134.7 35.86 134.7 35.86s0.04-1.53 0.04-25.78c-76.65-5.5-139.96-37.9-139.96-37.9s-4.2 10.82 5.22 27.82z" fill="#0D0833" /><path d="M652.01 63.96s-63.31 32.39-139.96 37.9c0 24.25-0.04 25.78-0.04 25.78s74.25-5.78 136.25-36.8c9.41-17 3.75-26.88 3.75-26.88z" fill="#0D0833" /><path d="M136.2 879.69h750.28v48.69H136.2z" fill="#D6AD2B" /><path d="M652.03 63.97C635.1 178.53 533.91 191.45 512.06 248.56c-21.85-57.1-123.04-70.02-139.97-184.59-8.58 3.05-5.7 1.32-26.22 9.24 32.64 142.27 152.81 122.39 147.65 231.87 6.31 0.26 18.65-0.09 18.65-0.09 1 0.03 12.4 0.34 18.43 0.09-5.16-109.48 115.22-89.61 147.86-231.88-20.53-7.93-17.85-6.18-26.43-9.23z" fill="#160B47" /><path d="M458.03 693.14h34.47l-1.44 74.66h-132.5c-0.16-4.81-0.24-7.26-0.24-7.38 0-22.2 3.35-42.11 10.05-59.73 3.43-9.04 8.18-18.02 14.24-26.95 6.06-8.92 13.44-17.91 22.14-26.95 14.68-15.56 24.14-26.77 28.37-33.64 4.23-7.09 6.34-14.25 6.34-21.45 0-6.98-1.44-12.7-4.31-17.16-2.87-4.46-7.18-6.69-12.93-6.69-12.29 0-18.43 11.16-18.43 33.47l-42.85-1.89c0.88-27.35 7.22-46.74 19.03-58.18 11.89-11.33 26.89-16.99 45-16.99 19.79 0 35.83 6.52 48.12 19.57 12.29 13.16 18.43 30.32 18.43 51.49 0 13.62-3.11 26.2-9.34 37.76-6.38 11.56-18.55 23.92-36.51 37.07-14.52 10.53-24.26 18.48-29.2 23.86-5.03 5.61-8.86 11.96-11.49 19.05h52.42l0.63-19.92zM666.92 767.8h-87.01v-48.4h20.11v-30.21h-70.14l-9.33-49.77 77.8-115.17h51.47V646.8h17.12v42.39H649.8v30.21h17.12v48.4z m-111.91-121h45v-65.22l-45 65.22z" fill="#FFFFFF" /><path d="M135.1 500.48h57.12v427.9H135.1z" fill="#160B47" /><path d="M158.49 513.06h19.57v415.16h-19.57z" fill="#FFFFFF" /><path d="M199.13 411.51s13.43 75.96-24.52 120.52c-14.95 17.55-39.51 31.7-39.51 31.7l0.03-51.03 64-101.19z" fill="#EEC72C" /><path d="M886.78 928.215h-57.12v-427.9h57.12z" fill="#160B47" /><path d="M863.4 928.058h-19.57v-415.16h19.57z" fill="#FFFFFF" /><path d="M822.76 411.35s-13.43 75.96 24.52 120.52c14.95 17.55 39.51 31.7 39.51 31.7l-0.03-51.03-64-101.19z" fill="#EEC72C" /><path d="M192.04 126.43l-0.08 281.53s7.46 86.28-56.85 132.2c-0.4-50.2 0.02-30.96 0.02-43.31 7.83-14.01 16.47-24.62 23.51-62.84 0.54-2.96 1.86-17.82 1.86-23.42-0.09-131.78-0.84-272.88-0.84-272.88l32.38-11.28zM829.68 126.69l0.08 281.53s-7.46 86.28 56.85 132.2c0.4-50.2-0.02-30.96-0.02-43.31-7.83-14.01-16.47-24.62-23.51-62.84-0.54-2.96-1.86-17.82-1.86-23.42 0.09-131.78 0.84-272.88 0.84-272.88l-32.38-11.28zM398.4 446.24l-22.39 43.92h-93.93l2.25-9.76h3.4c9.38 0.66 15.49-5.2 18.35-17.57l23.21-100.53c2.7-11.71-0.48-17.57-9.56-17.57h-3.4l2.25-9.76h59.22l-2.25 9.76h-5.45c-9.08 0-14.74 5.86-16.99 17.57l-23.66 102.48c-3.02 9.12-0.96 13.02 6.14 11.71h22.46c6.81 0 16.32-7.81 28.55-23.42 1.96-2.59 3.61-4.88 4.98-6.83h6.82z" fill="#160B47" /><path d="M402.5 412.56h-23.93l-8.52 18.38c-2.56 4.9-3.46 8.18-2.69 9.8 0.76 1.64 3.61 2.25 8.55 1.84h1.28l-1.41 6.13h-29.06l1.41-6.13h1.71c4.65 0.82 9.34-4.08 14.08-14.71l36.06-74.76-0.29-4.29h16.24l3.4 79.66c0.01 9.8 2.63 14.51 7.86 14.09l-1.41 6.13h-35.47l1.41-6.13h3.85c2.84 0 4.89-0.81 6.12-2.45 1.33-2.04 1.89-5.1 1.7-9.19l-0.89-18.37z m-0.15-8.57l-1.77-36.77-17.89 36.77h19.66z" fill="#160B47" /><path d="M461.08 403.37l-6.37 27.57c-2.56 8.58-0.6 12.47 5.86 11.64h1.71l-1.41 6.13h-35.9l1.41-6.13h2.14c5.22 0.82 8.83-3.06 10.81-11.64l14.29-61.89c2.07-7.76 0.12-11.64-5.86-11.64h-1.71l1.41-6.13h35.9l-1.41 6.13h-2.14c-5.89-0.4-9.54 3.68-10.95 12.26l-6.51 28.19c4.46-0.81 10.2-4.69 17.22-11.64 9.1-11.03 14.35-19 15.77-23.9 0.75-3.27-1-4.9-5.28-4.9h-1.28l1.41-6.13h29.49l-1.41 6.13c-6.37 0.41-10.78 2.25-13.24 5.52-1.9 2.05-4.93 5.93-9.1 11.64-7.02 9.4-12.47 15.73-16.35 19 2.09 2.05 4.76 7.77 8 17.16l5.44 17.16c2.67 10.63 7.1 15.53 13.27 14.71l-1.41 6.13h-37.6l1.41-6.13c4.84 0 7.73-1.43 8.68-4.29-0.39-4.49-3.68-14.29-9.88-29.41-2.19-4.1-4.33-5.94-6.41-5.54z" fill="#160B47" /><path d="M573.83 359.87H549.9l-8.06 34.93h17.95c5.5 0.82 9.06-2.85 10.67-11.03h4.27l-7.21 31.25h-4.27c2.36-7.76-0.07-11.43-7.28-11.03h-16.24l-6.51 28.19c-1.99 6.13-1.17 8.79 2.43 7.97h18.37c6.36 0.82 11.72-4.49 16.07-15.93h4.27l-6.94 24.51h-65.81l1.41-6.13h4.27c5.6 0.41 9.3-3.26 11.09-11.03l14.57-63.12c2.07-7.76-0.21-11.43-6.85-11.03h-1.28l1.42-6.13h60.25l-3.95 22.67h-4.27c1.5-10.21 0.03-14.91-4.44-14.09zM611.57 407.05l-5.52 23.9c-2.17 8.18-0.22 12.05 5.86 11.64h3.42l-1.42 6.13h-38.03l1.42-6.13h1.71c6.36 0.82 10.39-3.06 12.09-11.64l14.29-61.89c2.07-7.75-0.02-11.64-6.29-11.64h-2.14l1.41-6.13h2.99c5.03-0.81 8.83-1.23 11.39-1.23 7.78-0.4 13.86-0.81 18.23-1.23 15.38 0 24.64 3.68 27.79 11.03 2.19 5.31 2.53 11.24 1.03 17.77-3.5 12.67-10.84 21.04-22.04 25.12 1.81 3.27 3.81 8.79 6.01 16.55 1.81 6.95 3.33 12.24 5.44 15.32 32.01 46.67 76.87 4.88 77.2-13l1.77 8.51c1.52 7.31-0.02 14.94-4.3 21.05-1.77 2.52-3.34 4.37-3.76 4.87-13.59 16.46-68.69 33.56-88.43-13.95-1.43-3.45-3.38-9.52-4.72-14.83-1.91-7.76-4.2-14.5-6.87-20.22h-8.53z m11.89-51.47l-10.47 45.35h4.27c13.86 0.41 22.59-7.14 26.17-22.67 3.01-14.29-1.65-21.85-14-22.67h-5.97z" fill="#160B47" /><path d="M663.83 448.11l3.94-28.19h4.27c-0.17 15.53 4.3 23.28 13.43 23.28 7.78-0.4 13.09-5.52 15.93-15.32 1.6-6.94-1.98-14.29-10.72-22.06-10.56-9.8-14.56-20.22-12.01-31.25 4.53-15.93 13.92-24.51 28.16-25.74 3.7 0 7.98 1.23 12.83 3.68 1.33 0.41 2.28 0.61 2.85 0.61 0.28 0 0.95-0.4 1.99-1.23-0.38 0.41-0.05 0.21 1-0.61h2.14l-3.66 25.12h-4.27c-0.4-13.07-4.78-20.01-13.14-20.83-6.75 0.82-11.15 4.5-13.23 11.03-1.32 5.73 1.68 11.85 9 18.38 6.28 6.13 10.74 11.44 13.41 15.93 2.67 6.95 3.2 13.89 1.6 20.83-5.29 17.98-15.29 27.36-30.01 28.19-5.79-0.82-10.6-1.63-14.39-2.45-2-1.23-3.14-1.84-3.42-1.84-1.24 0.41-2.14 1.23-2.7 2.45h-3z" fill="#160B47" /><path d="M512.43 928.28h374.4l0.33-432.18s-24.72-35.09-24.67-82.41 0.66-275.83 0.66-275.83L652.33 63.87s-61.38 31.87-139.9 37.95v826.46z" fill="#664A1D" opacity=".21" /></svg>